<svg xmlns="http://www.w3.org/2000/svg" xmlns:xlink="http://www.w3.org/1999/xlink" viewBox="0 0 55.055 9.623" height="36.37" width="208.082" xmlns:v="https://vecta.io/nano"><path d="M.001 0h55.055v9.623H.001z"/><g fill="#5f5fd3"><path d="M5.22 3.007v1.08h2.53v1.44H5.22v2.52H3.8v-2.52H2.53v-1.44H3.8v-1.25h1.25V1.58h3.958V3zm6.136 5.038v-1.26h-1.26v-2.7h1.26v-1.25h5.207v5.207zm3.778-3.778h-3.6v2.35h3.6zm7.746 2.518v1.26h-5.218V1.58h1.43v1.26h3.8V4.1h1.25v2.7zm-.18-2.52h-3.6v2.35h3.6z"/><use xlink:href="#B"/><path d="M36.74 5.526v1.26h-1.26v1.26h-1.43v-1.43h1.25v-1.27h1.26v-1.08H35.3v-1.26h-1.25V1.58h1.43v1.26h1.26v1.25H38v1.44z"/><use xlink:href="#B" x="15.131"/></g><path d="M48.65 0h2.135v9.623H48.65z" fill="#cf0"/><path d="M51.427 2.316v-1.09h.413V.86h.413v1.82h-.413v-.364zm.826.364h1.24v.364h-1.24zm0-1.82V.497h1.24V.86zm1.24 1.82v-.364h.413v.364zm0-1.455V.86h.413v.364zm.413 1.092V1.225h.413v1.092zM52.415 2h.153v-.153h.153v-.153h-.153V1.54h-.153v-.306h.917v.306h-.306v-.153h-.306v.153h.153v.153h.153v.153h-.153V2h-.153v.153h.306V2h.306v.306h-.917z" fill="#5f5fd3"/><defs ><path id="B" d="M29.175 5.526v1.26h-1.26v1.26h-1.43v-1.43h1.25v-1.27h1.26v-1.08h-1.26v-1.26h-1.25V1.58h1.43v1.26h1.26v1.25h1.27v1.44z"/></defs></svg>